<?xml version="1.0" encoding="utf-8"?>
<!-- Generator: Adobe Illustrator 16.0.0, SVG Export Plug-In . SVG Version: 6.00 Build 0)  -->
<!DOCTYPE svg PUBLIC "-//W3C//DTD SVG 1.1//EN" "http://www.w3.org/Graphics/SVG/1.1/DTD/svg11.dtd">
<svg version="1.1" id="Layer_1" xmlns="http://www.w3.org/2000/svg" xmlns:xlink="http://www.w3.org/1999/xlink" x="0px" y="0px"
	 width="16382.84px" height="5184px" viewBox="0 0 16382.84 5184" enable-background="new 0 0 16382.84 5184" xml:space="preserve">
<g>
	<path fill="#FFFFFF" d="M0,1.2h53.303v14.001H15.401v14.901h33.402v14.001H15.401v27.102H0V1.2z"/>
	<path fill="none" d="M414.397,61.004l9.101-10.9c6.3,5.2,12.901,8.5,20.901,8.5c6.3,0,10.101-2.5,10.101-6.601v-0.2
		c0-3.899-2.4-5.899-14.101-8.899c-14.102-3.601-23.201-7.5-23.201-21.401v-0.2c0-12.701,10.201-21.102,24.501-21.102
		c10.201,0,18.9,3.2,26.002,8.9l-8,11.601c-6.2-4.3-12.301-6.9-18.201-6.9s-9.001,2.7-9.001,6.101v0.2c0,4.6,3,6.1,15.101,9.201
		c14.201,3.7,22.201,8.8,22.201,21.001v0.2c0,13.901-10.601,21.701-25.702,21.701C433.498,72.205,422.797,68.504,414.397,61.004z"/>
	<path fill="none" d="M497.998,15.401h-21.301V1.2H534.7v14.201h-21.301v55.803h-15.401V15.401z"/>
</g>
</svg>
