<?xml version="1.0" encoding="utf-8"?>
<!-- Generator: Adobe Illustrator 16.0.0, SVG Export Plug-In . SVG Version: 6.00 Build 0)  -->
<!DOCTYPE svg PUBLIC "-//W3C//DTD SVG 1.1//EN" "http://www.w3.org/Graphics/SVG/1.1/DTD/svg11.dtd">
<svg version="1.1" id="Layer_1" xmlns="http://www.w3.org/2000/svg" xmlns:xlink="http://www.w3.org/1999/xlink" x="0px" y="0px"
	 width="16382.84px" height="5184px" viewBox="0 0 16382.84 5184" enable-background="new 0 0 16382.84 5184" xml:space="preserve">
<g>
	<path fill="#FFFFFF" d="M21.301,15.401H0V1.2h58.004v14.201H36.702v55.803H21.301V15.401z"/>
	<path fill="none" d="M69.8,1.2h52.803v13.701H85.101v14.201h33.002v13.701H85.101v14.701h38.002v13.701H69.8V1.2z"/>
	<path fill="none" d="M133.699,36.402v-0.2C133.699,16.301,148.7,0,170.202,0c13.201,0,21.101,4.4,27.602,10.801l-9.801,11.301
		c-5.4-4.9-10.901-7.9-17.901-7.9c-11.801,0-20.301,9.801-20.301,21.801v0.2c0,12,8.301,22.001,20.301,22.001
		c8,0,12.901-3.2,18.401-8.2l9.801,9.9c-7.2,7.701-15.201,12.501-28.702,12.501C149,72.405,133.699,56.504,133.699,36.402z"/>
	<path fill="none" d="M210.599,1.2H226v27.702h28.402V1.2h15.401v70.004h-15.401V43.103H226v28.102h-15.401V1.2z"/>
	<path fill="none" d="M286.598,1.2h53.303v14.001h-37.902v14.901h33.402v14.001h-33.402v27.102h-15.401V1.2z"/>
	<path fill="none" d="M352.197,1.2H405v13.701h-37.502v14.201H400.5v13.701h-33.002v14.701H405.5v13.701h-53.303V1.2z"/>
	<path fill="none" d="M414.397,61.004l9.101-10.9c6.3,5.2,12.901,8.5,20.901,8.5c6.3,0,10.101-2.5,10.101-6.601v-0.2
		c0-3.899-2.4-5.899-14.101-8.899c-14.102-3.601-23.201-7.5-23.201-21.401v-0.2c0-12.701,10.201-21.102,24.501-21.102
		c10.201,0,18.9,3.2,26.002,8.9l-8,11.601c-6.2-4.3-12.301-6.9-18.201-6.9s-9.001,2.7-9.001,6.101v0.2c0,4.6,3,6.1,15.101,9.201
		c14.201,3.7,22.201,8.8,22.201,21.001v0.2c0,13.901-10.601,21.701-25.702,21.701C433.498,72.205,422.797,68.504,414.397,61.004z"/>
	<path fill="none" d="M497.998,15.401h-21.301V1.2H534.7v14.201h-21.301v55.803h-15.401V15.401z"/>
</g>
</svg>
